<?xml version="1.0" standalone="no"?>
<!DOCTYPE svg PUBLIC "-//W3C//DTD SVG 20010904//EN"
 "http://www.w3.org/TR/2001/REC-SVG-20010904/DTD/svg10.dtd">
<svg version="1.0" xmlns="http://www.w3.org/2000/svg"
 width="256.000000pt" height="256.000000pt" viewBox="0 0 256.000000 256.000000"
 preserveAspectRatio="xMidYMid meet">
<metadata>
Created by potrace 1.11, written by Peter Selinger 2001-2013
</metadata>
<g transform="translate(0.000000,256.000000) scale(0.100000,-0.100000)"
fill="#000000" stroke="none">
<path d="M1259 2558 c-1 -2 -2 -20 -3 -40 -1 -20 -4 -39 -6 -41 -3 -3 -37 -7
-76 -10 -574 -49 -1047 -514 -1101 -1082 l-8 -80 -31 0 c-26 1 -31 -3 -31 -22
0 -22 4 -24 47 -27 11 -1 16 -14 18 -46 33 -605 498 -1083 1112 -1145 79 -8
81 -10 76 -41 -4 -22 -2 -25 22 -22 20 2 27 9 27 25 0 11 2 23 5 26 3 3 41 8
85 12 594 50 1065 518 1112 1105 6 83 7 85 31 85 11 0 17 8 17 25 0 17 -6 25
-17 25 -24 0 -25 3 -32 75 -14 146 -49 267 -115 405 -139 288 -374 500 -683
615 -83 31 -216 59 -303 66 -44 3 -85 7 -91 9 -5 1 -10 21 -9 44 1 36 -2 41
-22 41 -13 0 -24 -1 -24 -2z m-5 -180 c-1 -16 -2 -32 -3 -37 0 -4 -31 -11 -68
-15 -100 -9 -130 -15 -218 -43 -370 -116 -657 -439 -729 -823 -9 -45 -16 -97
-16 -116 0 -20 -5 -34 -12 -35 -7 -1 -28 -2 -47 -4 l-34 -3 7 74 c22 270 158
538 373 737 153 142 392 256 598 284 22 3 41 6 43 8 1 1 26 2 55 1 50 -1 52
-2 51 -28z m302 3 c491 -119 837 -512 890 -1008 4 -35 3 -64 -2 -64 -41 -6
-84 -3 -85 6 -8 104 -36 234 -69 323 -140 374 -509 659 -892 688 -40 3 -78 7
-83 9 -9 2 -12 32 -6 69 2 13 156 -1 247 -23z m-304 -123 c3 -11 2 -912 -1
-943 -1 -7 -170 -10 -487 -10 l-485 0 6 60 c7 76 30 175 56 245 26 69 100 210
111 210 4 0 8 6 8 13 0 8 17 32 38 55 22 23 37 42 35 42 -9 0 86 88 143 132
125 97 274 165 429 193 92 17 142 18 147 3z m243 -9 c22 -5 49 -12 59 -14 40
-9 92 -28 104 -38 6 -5 12 -6 12 -3 0 4 35 -11 78 -34 275 -149 462 -395 525
-690 22 -105 27 -160 13 -161 -31 -3 -944 -4 -961 -1 -20 3 -20 11 -19 480 1
262 2 479 3 481 2 6 143 -9 186 -20z m-1289 -998 c6 0 12 -24 13 -54 1 -29 3
-62 5 -74 3 -11 7 -38 10 -59 31 -197 145 -413 296 -564 184 -185 407 -291
661 -315 62 -6 70 -10 65 -38 -4 -28 -45 -30 -160 -10 -415 72 -762 359 -900
743 -44 121 -79 322 -63 362 4 12 26 15 73 9z m1044 0 c4 -1 5 -975 1 -1004
-1 -4 -13 -5 -28 -3 -16 3 -50 7 -78 11 -43 5 -87 14 -145 30 -78 20 -192 76
-285 138 -54 37 -186 161 -225 212 -91 118 -157 264 -194 427 -10 43 -19 166
-14 180 4 10 100 13 484 12 264 -1 481 -2 484 -3z m1032 0 c16 -1 17 -9 13
-58 -6 -59 -11 -102 -19 -138 -81 -394 -392 -710 -777 -789 -93 -19 -189 -28
-190 -18 -4 31 -4 162 1 163 3 1 66 3 140 4 164 4 153 2 148 18 -3 8 -46 13
-148 17 l-143 5 -1 40 -1 40 119 5 c83 3 121 9 124 18 2 8 -9 12 -35 13 -216
3 -206 2 -209 30 -4 43 8 51 87 54 95 4 89 3 89 20 0 12 -15 14 -85 11 -47 -2
-85 1 -86 5 -1 5 -1 18 -1 29 0 56 -1 55 59 55 45 0 58 4 61 16 2 13 -7 16
-57 14 -37 -1 -61 2 -63 9 -3 9 -2 383 1 426 1 13 61 15 478 14 263 -1 486 -2
495 -3z m161 -78 c-3 -192 -101 -440 -244 -619 -197 -248 -536 -423 -828 -428
-62 -1 -66 0 -67 22 -2 29 0 30 72 36 397 38 734 281 892 642 49 111 74 211
87 349 4 39 9 73 11 76 2 3 20 5 41 4 l38 -2 -2 -80z"/>
</g>
</svg>
